<?xml version="1.0" encoding="UTF-8"?>
<svg width="512px" height="512px" viewBox="0 0 512 512" version="1.1" xmlns="http://www.w3.org/2000/svg" xmlns:xlink="http://www.w3.org/1999/xlink">
    <title>interface</title>
    <g id="Welcome" stroke="none" stroke-width="1" fill="none" fill-rule="evenodd">
        <g id="interface" fill="#323232" fill-rule="nonzero">
            <path d="M256,0 C114.833,0 0,114.844 0,256 C0,397.156 114.833,512 256,512 C397.167,512 512,397.156 512,256 C512,114.844 397.167,0 256,0 Z M357.771,264.969 L208.438,360.969 C206.688,362.104 204.667,362.667 202.667,362.667 C200.917,362.667 199.146,362.229 197.563,361.365 C194.125,359.49 192,355.906 192,352 L192,160 C192,156.094 194.125,152.51 197.563,150.635 C200.938,148.781 205.167,148.895 208.438,151.031 L357.771,247.031 C360.813,248.989 362.667,252.375 362.667,256 C362.667,259.625 360.813,263.01 357.771,264.969 Z" id="Shape"></path>
        </g>
    </g>
</svg>